<svg xmlns="http://www.w3.org/2000/svg" xmlns:svg="http://www.w3.org/2000/svg" id="svg16" width="83" height="67.05" version="1.1" viewBox="0 0 83 67.05"><defs id="defs7"><style id="style1">.cls-1{fill:none}.cls-3{clip-path:url(#clip-path)}.cls-4{fill:url(#未命名的渐变_3)}.cls-5{clip-path:url(#clip-path-2)}.cls-6{fill:url(#未命名的渐变_30)}.cls-7{fill:#227b3d}.cls-8{fill:#8c8c8c}</style><clipPath id="clip-path" transform="translate(0 0)"><path id="path1" d="m 0,25.08 c 0,7.56 4.06,14.37 10.4,19 a 2,2 0 0 1 0.85,1.64 2.32,2.32 0 0 1 -0.11,0.64 c -0.5,1.89 -1.32,4.92 -1.35,5.06 a 2.67,2.67 0 0 0 -0.17,0.73 1,1 0 0 0 1,1 1.2,1.2 0 0 0 0.58,-0.18 l 6.59,-3.81 a 3.23,3.23 0 0 1 1.6,-0.46 3.3,3.3 0 0 1 0.89,0.13 35.37,35.37 0 0 0 9.83,1.38 C 46.74,50.21 60.22,38.98 60.22,25.12 60.22,11.26 46.75,0 30.12,0 13.49,0 0,11.23 0,25.08" class="cls-1"/></clipPath><linearGradient id="未命名的渐变_3" x1="-159.05" x2="-158.12" y1="793.45" y2="793.45" gradientTransform="matrix(0,-50.19,50.19,0,-39793.37,-7921.57)" gradientUnits="userSpaceOnUse"><stop id="stop1" offset="0" stop-color="#7bc142"/><stop id="stop2" offset=".03" stop-color="#7bc142"/><stop id="stop3" offset=".96" stop-color="#a7d168"/><stop id="stop4" offset="1" stop-color="#a7d168"/></linearGradient><clipPath id="clip-path-2" transform="translate(0 0)"><path id="path4" d="m 33,43.71 c 0,11.53 11.23,20.88 25.08,20.88 a 29.57,29.57 0 0 0 8.19,-1.14 2.55,2.55 0 0 1 0.74,-0.11 2.7,2.7 0 0 1 1.33,0.38 l 5.49,3.17 a 0.92,0.92 0 0 0 0.48,0.16 0.85,0.85 0 0 0 0.84,-0.84 A 2.69,2.69 0 0 0 75,65.6 l -1.13,-4.21 a 2,2 0 0 1 -0.09,-0.53 1.68,1.68 0 0 1 0.71,-1.37 C 79.77,55.67 83.15,50 83.15,43.71 83.15,32.17 71.92,22.82 58.07,22.82 44.22,22.82 33,32.17 33,43.71" class="cls-1"/></clipPath><linearGradient id="未命名的渐变_30" x1="-159.24" x2="-158.31" y1="793.37" y2="793.37" gradientTransform="matrix(0,-47.44,47.44,0,-37578.96,-7487.13)" gradientUnits="userSpaceOnUse"><stop id="stop5" offset="0" stop-color="#d3d3d3"/><stop id="stop6" offset="0" stop-color="#e4e7e8"/><stop id="stop7" offset="1" stop-color="#f1f0f0"/></linearGradient></defs><title id="title7">Untitled-2</title><g id="g12" class="cls-3" clip-path="url(#clip-path)"><rect id="rect12" width="60.23" height="53.11" x="0" y="0" class="cls-4" style="fill:url(#%E6%9C%AA%E5%91%BD%E5%90%8D%E7%9A%84%E6%B8%90%E5%8F%98_3)"/></g><g id="g13" class="cls-5" clip-path="url(#clip-path-2)"><rect id="rect13" width="50.16" height="44.23" x="32.99" y="22.82" class="cls-6" style="fill:url(#%E6%9C%AA%E5%91%BD%E5%90%8D%E7%9A%84%E6%B8%90%E5%8F%98_30)"/></g><path id="path13" d="m 24.07,17 a 4,4 0 1 1 -4,-4 4,4 0 0 1 4,4" class="cls-7"/><path id="path14" d="m 44.21,17 a 4,4 0 1 1 -4,-4 4,4 0 0 1 4,4" class="cls-7"/><path id="path15" d="M 63.35,37.33 A 3.36,3.36 0 1 0 66.7,34 3.35,3.35 0 0 0 63.35,37.36" class="cls-8"/><path id="path16" d="M 46.56,37.33 A 3.36,3.36 0 1 0 49.92,34 3.36,3.36 0 0 0 46.56,37.36" class="cls-8"/><metadata id="metadata16"/></svg>